<svg width="400" height="150" viewBox="0 0 400 150" fill="none" xmlns="http://www.w3.org/2000/svg">
<path d="M81.6181 77.2861L65.1352 60.8031L48.6627 77.2861L65.1352 93.7585L81.6181 77.2861ZM65.1352 67.4888L74.9324 77.2861L65.1352 87.0834L55.3484 77.2861L65.1352 67.4888Z" fill="#F18636"/>
<path d="M86.769 77.2861L65.1352 98.9095L43.5118 77.2861L59.9947 60.8031H53.3091L36.8366 77.2861L65.1352 105.595L93.4442 77.2861L59.9947 43.8261V50.5118L86.769 77.2861Z" fill="#F18636"/>
<path d="M59.9947 32V38.6857L98.5951 77.2861L65.1352 110.736L31.6857 77.2861L48.1581 60.8031H41.483L25 77.2861L65.1352 117.421L105.281 77.2861L59.9947 32Z" fill="#F18636"/>
<path fill-rule="evenodd" clip-rule="evenodd" d="M266.116 78.9785C266.569 75.9949 268.055 73.2649 270.314 71.2635C272.572 69.2621 275.461 68.1161 278.478 68.0249C283.734 68.0249 286.961 71.1786 286.961 76.382C286.888 77.0022 286.846 77.6225 286.804 78.2322C286.804 78.4845 286.73 78.7367 286.688 78.989H266.116V78.9785ZM166.692 74.8473C166.072 65.5756 159.124 60.246 147.645 60.246C142.813 60.373 138.002 60.9431 133.274 61.9489L130.121 71.4098C135.204 69.6368 140.513 68.5927 145.889 68.3088C151.828 68.3088 156.517 71.2732 155.676 77.6855C152.638 77.4648 149.726 77.3071 148.033 77.3071C132.181 77.3071 123.12 83.3095 123.772 93.3591C124.266 100.97 130.531 105.458 139.361 106.079C149.337 106.794 158.398 104.691 163.318 101.622C164.306 94.8518 165.305 88.0925 166.335 81.3017C166.672 79.1678 166.791 77.0053 166.692 74.8473ZM153.1 96.5232C143.082 99.3404 135.966 97.8057 135.629 92.5707C135.282 87.0833 139.834 84.4133 149.568 84.4133C151.297 84.3954 153.022 84.5788 154.709 84.9599C154.173 88.7653 153.626 92.6653 153.1 96.5232ZM198.87 60.3196C190.46 60.3196 184.3 62.3274 179.591 66.6268C176.954 69.026 174.846 71.9468 173.398 75.2041C171.95 78.4614 171.195 81.9841 171.181 85.5486C171.181 91.6981 173.283 96.765 176.868 100.266C180.453 103.766 185.656 105.9 191.869 106.089C196.014 106.15 200.155 105.798 204.231 105.038H204.378L207.532 95.4194C203.821 96.7241 199.899 97.323 195.969 97.1855C189.02 96.6599 183.796 91.7402 183.796 84.4974C183.796 75.5621 190.397 69.0972 199.921 69.0972C203.348 69.17 206.732 69.8831 209.897 71.1996C210.759 68.5926 212.693 62.7899 212.693 62.7899C208.291 61.0709 203.595 60.2316 198.87 60.3196ZM322.261 60.3196C310.939 60.3196 303.339 65.7228 303.339 73.7645C303.339 79.6303 306.598 82.458 313.01 85.906L314.282 86.5893C318.193 88.6917 320.589 89.9426 320.589 92.5917C320.589 95.7453 317.257 97.5429 311.381 97.5429C307.262 97.5611 303.2 96.5914 299.534 94.7151L296.643 103.419C301.769 105.246 307.168 106.191 312.611 106.215C324.552 106.215 332.584 100.549 332.584 92.1607C332.584 86.3054 329.167 83.2464 323.249 80.0087C322.461 79.5777 321.641 79.1677 320.873 78.7367C317.026 76.7184 314.881 75.5831 314.881 73.0918C314.881 70.243 317.835 68.4664 322.555 68.4664C326.499 68.544 330.377 69.484 333.919 71.2206L336.725 62.8109C332.061 61.2371 327.183 60.3863 322.261 60.288V60.3196ZM240.067 60.3196C231.657 60.3196 225.497 62.3274 220.788 66.6268C218.151 69.026 216.042 71.9468 214.595 75.2041C213.147 78.4614 212.392 81.9841 212.378 85.5486C212.378 91.6981 214.48 96.765 218.065 100.266C221.65 103.766 226.853 105.9 233.066 106.089C237.211 106.151 241.352 105.799 245.428 105.038H245.575L248.729 95.4194C245.018 96.7241 241.096 97.323 237.165 97.1855C230.217 96.6599 224.992 91.7402 224.992 84.4974C224.992 75.5621 231.594 69.0972 241.118 69.0972C244.545 69.1688 247.929 69.8819 251.094 71.1996C251.956 68.5926 253.89 62.7899 253.89 62.7899C249.488 61.0709 244.792 60.2316 240.067 60.3196ZM360.619 60.3196C349.298 60.3196 341.698 65.7228 341.698 73.7645C341.698 79.6303 344.956 82.458 351.369 85.906L352.63 86.5893C356.551 88.6917 358.937 89.9426 358.937 92.5917C358.937 95.7453 355.605 97.5429 349.729 97.5429C345.61 97.5623 341.547 96.5925 337.882 94.7151L334.991 103.419C340.092 105.227 345.462 106.162 350.875 106.184C362.816 106.184 370.848 100.518 370.848 92.1291C370.848 86.2739 367.442 83.2149 361.523 79.9772C360.735 79.5462 359.915 79.1362 359.137 78.7052C355.3 76.6869 353.156 75.5516 353.156 73.0602C353.156 70.2114 356.11 68.4349 360.83 68.4349C364.773 68.5124 368.652 69.4525 372.193 71.1891L375 62.7794C370.36 61.2262 365.511 60.3861 360.619 60.288V60.3196ZM291.029 95.0095C286.51 96.6756 281.756 97.6227 276.943 97.8162C269.08 97.8162 264.581 94.1264 264.581 87.7036C264.581 87.241 264.581 86.7785 264.581 86.3054H296.327C296.85 83.4877 297.156 80.6341 297.242 77.7696C297.242 66.9106 290.336 60.1724 279.277 60.1724C271.372 60.1724 265.559 62.4851 260.544 67.7096C255.805 72.6892 253.153 79.2946 253.133 86.1688C253.133 98.5941 261.312 106.32 274.441 106.32C278.993 106.29 283.518 105.625 287.886 104.344C288.958 101.212 289.989 98.1105 291.029 94.9989V95.0095Z" fill="#004185"/>
</svg>
