<svg width="400" height="150" viewBox="0 0 400 150" fill="none" xmlns="http://www.w3.org/2000/svg">
<path fill-rule="evenodd" clip-rule="evenodd" d="M141 135H259.943V15H141V135Z" fill="#D94F00"/>
<path fill-rule="evenodd" clip-rule="evenodd" d="M208.647 68.7269H239.123V38.2832H208.647V68.7269Z" fill="white"/>
<path fill-rule="evenodd" clip-rule="evenodd" d="M171.798 84.1221V87.1103H177.06V102.891H180.669V86.9987H185.563V84.0113L171.798 84.1221Z" fill="white"/>
<path fill-rule="evenodd" clip-rule="evenodd" d="M169.1 87.8162V84.8451C166.19 83.5274 162.863 83.1444 159.415 84.8451C153.795 87.3493 153.603 99.7373 159.217 102.177C162.431 103.822 169.179 103.046 169.828 101.612V91.7913H163.181V94.3818H166.118V99.554C156.456 104.216 154.664 81.7102 169.1 87.8162" fill="white"/>
<path fill-rule="evenodd" clip-rule="evenodd" d="M187.893 83.7576V102.737H197.409C202.284 100.991 202.48 93.4989 197.409 92.7044C202.073 92.195 202.306 83.6631 194.26 83.6419L187.893 83.7576ZM191.47 86.6448H194.929C197.799 87.1769 196.764 91.4119 194.811 91.5342H191.469V86.6448H191.47ZM191.47 94.2095H194.929C197.799 94.3456 198.533 99.7125 194.811 99.6962H191.469V94.2095H191.47Z" fill="white"/>
<path fill-rule="evenodd" clip-rule="evenodd" d="M207.503 96.406C208.255 95.429 210.696 95.4705 212.302 95.9375V98.4319C209.668 101.281 205.37 99.9818 207.503 96.406M204.667 89.0711V91.9045C207.218 91.1858 212.73 89.2137 212.222 93.4088C207.364 93.0796 204.053 93.9515 203.5 96.965C202.577 103.483 209.57 104.104 212.533 100.912V102.448H215.89V90.9959C215.075 87.3305 209.551 86.8546 204.667 89.0711" fill="white"/>
<path fill-rule="evenodd" clip-rule="evenodd" d="M222.85 92.4199C223.725 91.4746 228.387 89.6981 229.081 92.4199V102.506H232.822V91.8071C232.008 87.3422 227.766 86.5624 222.59 89.5677V87.8866H219.059V102.557H222.8L222.85 92.4199Z" fill="white"/>
<path fill-rule="evenodd" clip-rule="evenodd" d="M244.555 87.7851L239.673 94.3557L244.866 102.403L249.383 102.301L243.672 94.5594L248.813 87.9375L244.555 87.7843V87.7851Z" fill="white"/>
<path fill-rule="evenodd" clip-rule="evenodd" d="M235.623 102.403H239.31V82.9966H235.623V102.403Z" fill="white"/>
<path fill-rule="evenodd" clip-rule="evenodd" d="M208.647 68.7269H239.123V38.2832H208.647V68.7269Z" fill="white"/>
</svg>
